<?xml version="1.0" encoding="UTF-8"?>
<svg xmlns="http://www.w3.org/2000/svg" viewBox="0 0 64 48">
  <path fill="#fff" d="M54.121 4.004a52.2466 52.2466 0 0 0-13.5-4 35.0566 35.0566 0 0 0-1.5 3.5 48.7611 48.7611 0 0 0-14.5 0 35.0566 35.0566 0 0 0-1.5-3.5c-4.6562.7226-9.1991 2.0663-13.5 4C1.621 16.5-.879 28.5.621 40c4.8438 3.5508 10.254 6.2578 16 7.996 1.3165-1.7304 2.4884-3.5663 3.5-5.496-1.9022-.668-3.746-1.504-5.5-2.5l1-1c10.2852 4.8672 22.215 4.8672 32.5 0l1 1a34.3262 34.3262 0 0 1-5 2.5 38.002 38.002 0 0 0 3 5.496A52.4677 52.4677 0 0 0 63.621 40c1-13.5-2.5-25.5-9.5-35.996ZM21.121 33c-3 0-5.5-3-5.5-6.5s2.5-6.5 5.5-6.5 6 3 6 6.5-2.5 6.5-6 6.5Zm21.5 0c-3.5 0-6-3-6-6.5s2.5-6.5 6-6.5 5.5 3 5.5 6.5-2.5 6.5-5.5 6.5Zm0 0"/>
</svg>
