<?xml version="1.0" encoding="UTF-8"?>
<svg xmlns="http://www.w3.org/2000/svg" viewBox="0 0 64 67">
  <defs>
    <linearGradient id="a" x1="9.109" x2="41.109001" y1="26" y2="26" gradientTransform="matrix(1.88235 0 0 1.86111 -13.38353 -13.027778)" gradientUnits="userSpaceOnUse">
      <stop offset="0" stop-color="#4a4a4a"/>
      <stop offset=".659" stop-color="#323232"/>
      <stop offset="1" stop-color="#232323"/>
    </linearGradient>
  </defs>
  <path fill="#037478" d="M47.058594 13.027344V3.722656H16.9375v7.445313h-3.761719v9.304687H9.410156v5.582032H7.527344v9.304687h32v-5.582031h3.765625v-1.859375h3.765625v-7.445313h-3.765625v-7.445312Zm0 0"/>
  <path fill="url(#a)" d="M22.585938 40.945312H3.761719v-3.722656l20.707031-1.863281ZM56.46875 3.722656l-5.648438 3.722656-3.761718 3.722657-3.765625 3.722656v5.582031l9.410156-1.863281v-3.71875h3.765625v-3.722656h3.765625V7.445312H64V3.722656ZM15.058594 59.554688V67h3.761718v-3.722656h3.765626v-3.722656h3.765624v-3.722657h3.765626v-3.722656h3.761718v-3.71875h3.765625v-3.722656h3.765625v-3.722657h3.765625v-3.722656H48.9375V33.5h3.765625v-3.722656h3.765625v-3.722656h3.765625v-3.722657h-7.53125Zm0 0"/>
  <path fill="#f9f9f9" d="M11.292969 59.554688h3.765625v3.722656h-3.765625ZM60.234375 0v3.722656H56.46875v3.722656h-3.765625v3.722657H48.9375v3.722656h-3.761719v3.71875H56.46875v3.722656h-3.765625v3.722657H48.9375v3.722656h-3.761719V33.5h-3.765625v3.722656h-3.765625v3.722656h-3.765625v3.722657h-3.761718v3.722656h-3.765626v3.71875h-3.765624v3.722656h-3.765626v3.722657h-3.761718v-7.445313h3.761718v-7.441406h3.765626v-7.445313H0v-7.445312h3.761719v-7.445313h3.765625v-7.441406h3.765625V7.445312h3.765625V0ZM45.175781 7.445312H18.820312v7.445313h-3.761718v7.441406h-3.765625v7.445313h22.585937V33.5h3.765625v-3.722656h3.765625v-3.722656h-7.53125v-7.445313h3.765625v-3.71875h3.765625v-3.722656h3.765625Zm0 0"/>
  <path fill="#cdff03" d="M11.292969 26.054688h3.765625v3.722656h-3.765625Zm3.765625-3.722657v3.722657h3.761718v-3.722657Zm3.761718 7.445313h3.765626v-3.722656h-3.765626Zm3.765626-7.445313v3.722657h3.765624v-3.722657Zm3.765624 3.722657v3.722656h3.765626v-3.722656Zm7.527344 0v3.722656h-3.761718v7.445312h3.761718V33.5h3.765625v-7.445312Zm0-3.722657h-3.761718v3.722657h3.761718Zm0 0"/>
</svg>