<?xml version="1.0" encoding="UTF-8"?>
<svg xmlns="http://www.w3.org/2000/svg" viewBox="0 0 64 62">
  <path fill="#fff" d="M32.027344 0C14.382812 0 .121094 14.207031.121094 31.785156c0 14.050782 9.136718 25.945313 21.816406 30.15625 1.582031.316406 2.164062-.683594 2.164062-1.527344 0-.738281-.050781-3.261718-.050781-5.894531-8.875 1.894531-10.722656-3.789062-10.722656-3.789062-1.429687-3.683594-3.542969-4.628907-3.542969-4.628907C6.882812 44.152344 10 44.152344 10 44.152344c3.21875.210937 4.910156 3.261718 4.910156 3.261718 2.851563 4.84375 7.449219 3.476563 9.296875 2.632813.265625-2.050781 1.109375-3.472656 2.007813-4.261719C19.136719 45.046875 11.6875 42.3125 11.6875 30.101562c0-3.472656 1.269531-6.316406 3.277344-8.523437-.316406-.789063-1.425782-4.054687.316406-8.421875 0 0 2.695312-.84375 8.769531 3.261719 2.597657-.695313 5.28125-1.046875 7.976563-1.050781 2.691406 0 5.4375.367187 7.972656 1.050781 6.074219-4.105469 8.769531-3.261719 8.769531-3.261719 1.742188 4.367188.632813 7.632812.316407 8.421875 2.0625 2.207031 3.277343 5.050781 3.277343 8.523437 0 12.210938-7.449219 14.894532-14.582031 15.683594 1.164062 1 2.167969 2.894532 2.167969 5.894532 0 4.261718-.054688 7.683593-.054688 8.734374 0 .84375.582031 1.84375 2.167969 1.527344 12.675781-4.210937 21.816406-16.105468 21.816406-30.15625C63.929688 14.207031 49.613281 0 32.027344 0Zm0 0"/>
</svg>