<?xml version="1.0" encoding="UTF-8"?>
<svg xmlns="http://www.w3.org/2000/svg" viewBox="0 0 64 54">
  <path fill="#fff" d="M3.917969 23.550781S32.222656 11.816406 42.039062 7.683594C45.800781 6.03125 58.5625.742188 58.5625.742188s5.890625-2.3125 5.398438 3.308593c-.164063 2.3125-1.472657 10.410157-2.78125 19.171875-1.960938 12.394532-4.089844 25.949219-4.089844 25.949219s-.328125 3.800781-3.109375 4.460937c-2.78125.664063-7.359375-2.3125-8.179688-2.972656-.652343-.496094-12.269531-7.933594-16.523437-11.570312-1.144532-.992188-2.453125-2.976563.164062-5.289063 5.890625-5.453125 12.925782-12.230469 17.179688-16.527343 1.960937-1.984376 3.925781-6.613282-4.253906-.992188C30.75 24.378906 19.296875 31.980469 19.296875 31.980469s-2.617187 1.65625-7.527344.167969c-4.90625-1.488282-10.632812-3.472657-10.632812-3.472657s-3.925781-2.476562 2.78125-5.125Zm0 0"/>
</svg>