<?xml version="1.0" encoding="UTF-8"?>
<svg xmlns="http://www.w3.org/2000/svg" viewBox="0 0 64 45">
  <path fill="#fff" fill-rule="evenodd" d="M57 1.636719c2.757812.734375 4.925781 2.882812 5.660156 5.609375 1.335938 4.941406 1.335938 15.257812 1.335938 15.257812s0 10.320313-1.335938 15.261719C61.917969 40.5 59.75 42.648438 57 43.375c-4.988281 1.320312-25.003906 1.320312-25.003906 1.320312s-20.007813 0-25.007813-1.320312c-2.757812-.734375-4.925781-2.886719-5.660156-5.609375C-.0078125 32.824219-.0078125 22.503906-.0078125 22.503906s0-10.316406 1.3359375-15.257812c.742187-2.734375 2.910156-4.882813 5.660156-5.609375 5-1.320313 25.007813-1.320313 25.007813-1.320313S52.011719.316406 57 1.636719ZM42.226562 22.503906l-16.625 9.511719V12.992188Zm0 0"/>
</svg>
